<!-- Generated by IcoMoon.io -->
<svg version="1.1" xmlns="http://www.w3.org/2000/svg" width="37" height="32" viewBox="0 0 37 32">
<title>Union-1</title>
<path fill="#afb1b8" d="M15.647 2.683h-0.125c-0.192-0.012-0.384-0.016-0.576-0.021v0h-0.416c-0.363 0-0.733 0.009-1.101 0.028-0.028-0.002-0.056-0.002-0.083 0-3.332 0.189-6.596 1.022-9.615 2.453l-0.396 0.191v20.243l0.925-0.314c0.812-0.279 1.677-0.53 2.572-0.763 2.42-0.621 4.904-0.951 7.401-0.983v2.66c-0.331 0.002-0.652 0.012-0.974 0.028h-0.076c-1.922 0.105-3.829 0.398-5.694 0.874-2.363 0.592-4.642 1.48-6.784 2.643v-25.963c2.225-1.298 4.621-2.272 7.117-2.895 2.192-0.566 4.445-0.856 6.707-0.865h0.391c0.467 0.012 0.923 0.033 1.351 0.065 1.127 0.079 2.246 0.257 3.342 0.532v2.618c-1.065-0.248-2.148-0.411-3.238-0.488-0.022-0.002-0.044-0.004-0.066-0.006-0.226-0.019-0.452-0.039-0.662-0.039zM20.254 5.359c0.58 0.044 1.182 0.065 1.79 0.065 2.379-0.009 4.747-0.312 7.052-0.904 2.361-0.594 4.64-1.483 6.781-2.646v25.5c-2.226 1.297-4.622 2.271-7.119 2.895-2.192 0.564-4.445 0.853-6.707 0.863-1.714 0.014-3.424-0.188-5.088-0.6v-25.665c0.393 0.091 0.798 0.174 1.21 0.244 0.675 0.114 1.388 0.198 2.082 0.249zM33.232 5.557l-0.925 0.312c-0.851 0.286-1.709 0.542-2.572 0.77-2.512 0.645-5.093 0.977-7.686 0.986-0.604 0-1.159-0.016-1.695-0.051l-0.738-0.049v20.825l0.634 0.056c0.588 0.051 1.194 0.077 1.804 0.077 2.042-0.009 4.075-0.272 6.053-0.783 1.628-0.409 3.213-0.978 4.73-1.7l0.396-0.191v-20.25z"></path>
</svg>
